# xmcd CD database file
#
# Track frame offsets:
#	150
#	25361
#	48663
#	67529
#	87053
#	112483
#	137799
#	156153
#	172803
#	191990
#
# Disc length: 2947 seconds
#
# Revision: 0
# Processed by: cddbd v1.5PL3 Copyright (c) Steve Scherf et al.
# Submitted via: CDex 1.50
#
DISCID=870b810a
DTITLE=Vienna Symphony Jazz Project - Fakin'
DYEAR=2001
DGENRE=Jazz
TTITLE0=Footprints
TTITLE1=Don't get around much anymore
TTITLE2=Milestones
TTITLE3=Fakin'
TTITLE4=Caravan
TTITLE5=Just squeeze me
TTITLE6=Blues and the abstract truth
TTITLE7=Blue bossa
TTITLE8=Take the a train
TTITLE9=All blues
EXTD=YEAR: 2001
EXTT0=
EXTT1=
EXTT2=
EXTT3=
EXTT4=
EXTT5=
EXTT6=
EXTT7=
EXTT8=
EXTT9=
PLAYORDER=
